<?xml version="1.0" standalone="no"?>
<!DOCTYPE svg PUBLIC "-//W3C//DTD SVG 20010904//EN"
 "http://www.w3.org/TR/2001/REC-SVG-20010904/DTD/svg10.dtd">
<svg version="1.0" xmlns="http://www.w3.org/2000/svg"
 width="840.000000pt" height="859.000000pt" viewBox="0 0 840.000000 859.000000"
 preserveAspectRatio="xMidYMid meet">

<g transform="translate(0.000000,859.000000) scale(0.100000,-0.100000)"
fill="#000000" stroke="none">
<path d="M3522 6292 c-15 -16 -69 -100 -121 -187 -112 -187 -156 -248 -214
-293 -23 -18 -127 -115 -232 -216 -104 -100 -220 -207 -256 -238 -147 -124
-316 -218 -449 -252 -158 -40 -363 -30 -514 25 -155 57 -269 140 -531 389 -87
84 -175 163 -195 176 l-36 24 -155 -44 c-176 -51 -283 -88 -351 -122 -46 -23
-47 -25 -96 -151 -161 -418 -268 -821 -319 -1199 -11 -88 -17 -200 -17 -354 0
-195 3 -249 26 -400 15 -96 32 -256 38 -355 6 -99 16 -199 21 -223 42 -189
253 -389 516 -488 86 -32 205 -41 723 -54 1275 -30 2936 -60 3366 -60 385 0
577 12 994 61 922 108 1588 277 2125 539 294 143 408 237 488 399 l42 86 0
140 c0 169 -19 240 -93 355 -89 138 -163 190 -297 209 -38 6 -106 15 -150 22
-255 36 -1148 305 -1560 469 -140 56 -426 190 -640 300 -82 42 -240 123 -350
180 -110 56 -208 109 -217 117 -9 8 -20 34 -23 56 -10 56 -26 85 -72 128 -57
55 -104 75 -225 94 -33 5 -40 12 -58 52 -46 105 -88 137 -202 156 l-72 12 -11
55 c-22 111 -66 158 -177 191 -69 20 -74 24 -227 173 -215 209 -289 256 -402
256 -43 0 -55 -4 -77 -28z m205 -211 c105 -90 245 -240 241 -257 -2 -9 -19
-25 -39 -37 l-36 -21 -39 21 c-21 11 -77 41 -124 66 -47 25 -112 53 -145 62
-33 10 -64 21 -69 25 -17 16 106 200 135 200 4 0 39 -26 76 -59z m-142 -441
l50 -22 -52 -23 c-40 -18 -59 -35 -85 -77 -46 -70 -59 -80 -124 -89 -104 -14
-162 -90 -135 -178 20 -69 109 -117 170 -91 36 14 101 83 101 105 0 21 58 55
93 55 43 0 89 24 125 64 28 32 32 44 32 91 0 30 4 55 9 55 13 0 129 -68 136
-80 12 -19 -240 -179 -495 -315 l-165 -87 -40 21 c-22 12 -89 50 -148 84
l-108 64 138 139 c210 213 358 322 423 310 14 -2 48 -14 75 -26z m-2532 -337
c341 -329 587 -462 887 -482 263 -17 476 40 730 195 66 40 121 67 138 67 15 0
59 -18 97 -41 90 -53 108 -68 101 -81 -12 -20 -374 -130 -576 -175 -228 -51
-600 -103 -669 -93 -20 2 -63 22 -96 42 -125 80 -324 159 -544 215 -72 18
-560 120 -576 120 -22 0 50 227 84 262 18 18 233 96 269 97 15 1 62 -37 155
-126z m3031 -12 c-10 -88 0 -126 43 -158 54 -41 110 -39 157 6 20 19 38 43 42
53 8 25 47 23 79 -4 22 -20 27 -35 35 -110 13 -132 46 -178 126 -178 64 0 117
43 138 113 5 17 8 17 45 -2 43 -23 45 -27 61 -156 6 -49 17 -101 23 -115 15
-32 71 -60 120 -60 49 0 100 47 116 108 7 23 16 42 21 42 14 0 771 -382 767
-387 -2 -2 -73 11 -158 29 -146 30 -166 32 -369 33 -186 0 -230 -3 -330 -23
-233 -47 -422 -125 -607 -249 -128 -85 -200 -147 -364 -316 l-137 -140 -127
12 c-146 14 -409 50 -835 115 -162 24 -357 53 -434 63 -117 15 -141 21 -151
38 -6 11 -33 57 -60 102 -27 45 -86 133 -132 195 -45 61 -81 114 -78 116 2 2
59 -12 127 -31 446 -129 801 -206 1151 -252 167 -22 379 -30 465 -16 181 28
322 158 322 296 0 90 -88 241 -224 384 -73 76 -212 191 -232 191 -17 0 -18 5
7 -65 29 -80 30 -184 2 -246 -43 -97 -118 -153 -250 -186 -100 -25 -393 -22
-633 6 -242 28 -461 61 -479 71 -18 10 -20 9 173 55 336 80 628 184 928 331
196 97 299 157 503 294 83 55 151 100 153 100 2 0 0 -27 -4 -59z m-3314 -442
c504 -107 638 -153 855 -297 158 -104 323 -265 440 -427 70 -98 71 -110 8
-101 -312 44 -1132 126 -1328 133 -193 6 -261 -5 -365 -57 -33 -16 -62 -30
-66 -30 -35 0 87 655 151 806 13 33 18 35 42 29 16 -4 134 -29 263 -56z m4780
-530 c47 -5 157 -28 244 -50 208 -51 215 -51 262 6 20 25 44 45 53 45 21 0
201 -63 201 -70 0 -3 -44 -17 -97 -29 -136 -33 -251 -74 -367 -132 -126 -64
-196 -112 -290 -199 -42 -38 -77 -70 -79 -70 -2 0 -33 48 -68 106 -147 244
-228 260 -561 114 -208 -92 -329 -140 -448 -178 -113 -36 -218 -58 -228 -47
-10 10 129 140 236 220 91 68 268 164 387 210 39 15 120 40 180 55 102 27 124
29 300 30 105 0 229 -5 275 -11z m1262 -240 c123 -25 478 -135 497 -154 17
-17 -31 -22 -339 -35 -642 -28 -788 -51 -1070 -170 -168 -71 -195 -80 -236
-80 -87 0 -84 27 14 121 92 90 145 127 261 184 135 67 290 111 521 148 78 13
258 6 352 -14z m-5737 -119 c663 -63 1375 -154 2035 -260 311 -50 485 -69 708
-76 381 -14 595 34 1036 230 239 107 306 124 339 89 8 -10 45 -69 82 -132 120
-206 168 -267 245 -306 103 -53 198 -52 323 1 403 171 403 172 1107 209 325
17 415 26 594 56 168 29 389 37 438 16 75 -32 138 -166 138 -296 0 -118 -76
-236 -170 -261 -67 -18 -381 -37 -1310 -80 -239 -11 -577 -27 -750 -35 -173
-8 -436 -18 -585 -21 l-270 -6 -305 57 c-168 31 -444 83 -615 116 -170 33
-404 78 -520 100 -115 22 -232 44 -260 50 -196 40 -499 91 -618 104 -149 16
-381 36 -1257 110 l-535 45 -140 -64 c-179 -83 -234 -98 -367 -94 l-103 3 -7
45 c-3 25 -9 99 -13 165 l-7 120 82 50 c178 107 225 111 705 65z m385 -511
c981 -78 1403 -122 1660 -172 910 -178 1551 -301 1680 -322 266 -45 416 -45
1515 5 237 11 529 24 650 30 511 23 528 23 521 12 -10 -16 -193 -85 -361 -136
-422 -127 -917 -220 -1565 -296 -400 -46 -942 -46 -3300 0 -1029 20 -1422 33
-1507 49 -47 9 -128 40 -108 41 318 19 333 22 357 76 14 31 -1 66 -39 91 -24
16 -59 19 -285 23 -297 6 -290 4 -313 102 l-13 55 387 6 c225 3 397 9 412 15
38 15 55 62 36 98 -34 66 -14 63 -443 66 l-389 3 3 65 c2 36 5 66 7 68 1 1 58
7 126 13 146 12 194 24 314 80 123 57 161 68 225 63 30 -3 224 -18 430 -35z"/>
<path d="M1575 3181 c-111 -8 -165 -35 -211 -103 -57 -85 -54 -218 7 -292 17
-20 54 -49 83 -64 l51 -27 765 0 c421 0 786 4 812 8 61 11 129 63 158 122 26
54 31 148 11 207 -17 53 -99 123 -159 138 -53 13 -1360 23 -1517 11z m1501
-195 c19 -27 18 -80 -3 -97 -13 -12 -147 -15 -757 -17 -509 -2 -753 0 -778 8
-28 8 -38 17 -43 40 -8 36 8 68 38 74 12 3 31 7 42 10 11 2 350 3 753 3 714
-2 734 -3 748 -21z"/>
</g>
</svg>
